<?xml version="1.0" encoding="utf-8"?>
<!-- Generator: Adobe Illustrator 27.5.0, SVG Export Plug-In . SVG Version: 6.00 Build 0)  -->
<svg version="1.1" xmlns="http://www.w3.org/2000/svg" xmlns:xlink="http://www.w3.org/1999/xlink" x="0px" y="0px"
	 viewBox="0 0 2200 2200" style="enable-background:new 0 0 2200 2200;" xml:space="preserve">
<g id="background">
	<rect style="fill:#FFFFFF;" width="2200" height="2200"/>
</g>
<g id="Objects">
	<g>
		<ellipse style="fill:#C9E2E2;" cx="1526.294" cy="1500.217" rx="145.781" ry="55.356"/>
		<path style="fill:#2E3A3A;" d="M1672.964,797.054H527.036l-299.11,965.566h1744.147L1672.964,797.054z M985.29,1486.599
			l729.889-374.894l185.288,598.134h-701.058L985.29,1486.599z M1121.305,1709.838H550.661l382.304-196.364L1121.305,1709.838z
			 M565.942,849.836h1068.115l65.262,210.676l-752.16,386.333l-427.944-446.173L565.942,849.836z M500.15,1062.223l394.685,411.498
			l-459.7,236.117H299.534L500.15,1062.223z"/>
		<path style="fill:#59CFD1;" d="M1777.401,1196.511c-135.986,112.889-240.085,272.841-250.665,289.356
			c-0.167,0.272-0.314,0.502-0.44,0.701c-0.126-0.199-0.272-0.429-0.44-0.701c-10.58-16.514-114.679-176.466-250.665-289.356
			c-95.172-79.003-160.36-194.801-158.843-328.412c2.564-225.14,184.786-404.798,409.948-404.328
			c225.161-0.471,407.383,179.187,409.948,404.328C1937.761,1001.709,1872.573,1117.508,1777.401,1196.511z"/>
		<circle style="fill:#FFFFFF;" cx="1526.294" cy="872.856" r="235.215"/>
	</g>
</g>
</svg>
